<svg width="83" height="107" viewBox="0 0 83 107" fill="none" xmlns="http://www.w3.org/2000/svg">
<path d="M83 76.8366C83 92.9485 64.4198 106.01 41.5 106.01C18.5802 106.01 0 92.9485 0 76.8366C0 60.7246 18.5802 47.6633 41.5 47.6633C64.4198 47.6633 83 60.7246 83 76.8366Z" fill="#FF0000"/>
<path d="M39.0988 0L79.7129 65.0206L45.7446 50.3512L1.64356 68.2079L39.0988 0Z" fill="#FF0000"/>
<path d="M20.0316 83.0099V55.0099H34.3516C38.0316 55.0099 40.7783 55.6899 42.5916 57.0499C44.4049 58.3832 45.3116 60.1432 45.3116 62.3299C45.3116 63.7699 44.9249 65.0366 44.1516 66.1299C43.4049 67.1966 42.3383 68.0499 40.9516 68.6899C39.5916 69.3032 37.9649 69.6099 36.0716 69.6099L36.8716 67.6899C38.8449 67.6899 40.5649 67.9966 42.0316 68.6099C43.4983 69.1966 44.6316 70.0632 45.4316 71.2099C46.2583 72.3299 46.6716 73.7032 46.6716 75.3299C46.6716 77.7566 45.6849 79.6499 43.7116 81.0099C41.7649 82.3432 38.9116 83.0099 35.1516 83.0099H20.0316ZM27.8716 77.2899H34.5116C35.8716 77.2899 36.8983 77.0632 37.5916 76.6099C38.3116 76.1299 38.6716 75.4099 38.6716 74.4499C38.6716 73.4899 38.3116 72.7832 37.5916 72.3299C36.8983 71.8499 35.8716 71.6099 34.5116 71.6099H27.3116V66.1299H33.3116C34.6449 66.1299 35.6449 65.9032 36.3116 65.4499C36.9783 64.9966 37.3116 64.3166 37.3116 63.4099C37.3116 62.5032 36.9783 61.8366 36.3116 61.4099C35.6449 60.9566 34.6449 60.7299 33.3116 60.7299H27.8716V77.2899ZM57.0938 78.5299V59.4899H63.2538V78.5299H57.0938ZM50.2938 71.9299V66.0899H70.0138V71.9299H50.2938Z" fill="white"/>
</svg>
